<svg xmlns="http://www.w3.org/2000/svg" viewBox="0 0 64 64" role="img" aria-label="GF favicon">
  <defs>
    <linearGradient id="bg" x1="0" y1="0" x2="1" y2="1">
      <stop offset="0%" stop-color="#f43f5e"/>
      <stop offset="100%" stop-color="#ec4899"/>
    </linearGradient>
    <linearGradient id="heart" x1="0" y1="0" x2="1" y2="1">
      <stop offset="0%" stop-color="#ffffff"/>
      <stop offset="100%" stop-color="#ffe4ef"/>
    </linearGradient>
  </defs>

  <rect x="2" y="2" width="60" height="60" rx="16" fill="url(#bg)"/>

  <path
    d="M32 50c-.8 0-1.6-.3-2.2-.9l-13-12.5a10.3 10.3 0 0 1 0-14.9 10.8 10.8 0 0 1 15 0L32 23l.2-.3a10.8 10.8 0 0 1 15 0 10.3 10.3 0 0 1 0 14.9l-13 12.5c-.6.6-1.4.9-2.2.9Z"
    fill="url(#heart)"
  />

  <text
    x="32"
    y="38"
    text-anchor="middle"
    font-size="14"
    font-family="Inter, Arial, sans-serif"
    font-weight="700"
    fill="#db2777"
  >
    GF
  </text>
</svg>
